/* XPM */
static char *e09e98887c674256b9af6d7c499c7403ckRojN2yxDuvk7Yz[] = {
/* columns rows colors chars-per-pixel */
"16 16 37 1 ",
"  c #47704C",
". c #CE021B",
"X c #CA011F",
"o c black",
"O c #C90220",
"+ c #CA031F",
"@ c #960117",
"# c #C8021F",
"$ c black",
"% c #CA011E",
"& c black",
"* c #C8011E",
"= c #CA021E",
"- c #C9011E",
"; c #CB021E",
": c #C9021E",
"> c #CC011D",
", c black",
"< c #C9002D",
"1 c #D90120",
"2 c #CD001F",
"3 c black",
"4 c #C6041E",
"5 c #C9031D",
"6 c #CA011F",
"7 c #E5031F",
"8 c black",
"9 c black",
"0 c black",
"q c #D5021F",
"w c #C80120",
"e c #CD001E",
"r c #C5031C",
"t c #A80216",
"y c black",
"u c black",
"i c None",
/* pixels */
"                ",
"                ",
"   @+6>>>>=*    ",
"  @X#%XXXX:5+   ",
"  +#t$   @$=;1  ",
"  6%$&o 9,8q#O  ",
"  2% 30o,&$+#.  ",
"  e%  oi&$1#r   ",
"  2% 9,&oy<%:@  ",
"  2X@,&$u03-#-  ",
"  =:$8$  3oO#-  ",
"  O5=q7..7O:4<  ",
"   +;#;;###4q   ",
"    1Ow***-<    ",
"                ",
"                "
};
