/* XPM */
static char *_0067197d8d341b1f7bb3c8e7b32500ejuLhCIMviXXglwIL[] = {
/* columns rows colors chars-per-pixel */
"32 32 51 1 ",
"  c #47704C",
". c #CD021E",
"X c #CA011F",
"o c #C7001D",
"O c #C3001D",
"+ c None",
"@ c #640010",
"# c #C5001C",
"$ c #CC011E",
"% c #CA0220",
"& c black",
"* c black",
"= c #C5001C",
"- c #CA001E",
"; c black",
": c black",
"> c black",
", c #C70016",
"< c black",
"1 c black",
"2 c #C5011B",
"3 c black",
"4 c #C6031D",
"5 c black",
"6 c black",
"7 c #C8021E",
"8 c #C8021F",
"9 c #C7021F",
"0 c #C9031F",
"q c #C7011D",
"w c #C9031E",
"e c #C00014",
"r c #C5021E",
"t c #C6021F",
"y c #C5021C",
"u c #CA021F",
"i c #C2011C",
"p c black",
"a c black",
"s c #C8031F",
"d c black",
"f c #C9011D",
"g c black",
"h c #C7031D",
"j c #C9021D",
"k c black",
"l c black",
"z c black",
"x c #C80321",
"c c black",
"v c #C50321",
/* pixels */
"                                ",
"                                ",
"                                ",
"                                ",
"          ,##########           ",
"        y7.$$$$$$$$$uwf#        ",
"      #t%+%XXXXXXXXX9+0w=       ",
"      t+hrO=========Oq4+j#      ",
"     y%Xy             =.+q      ",
"     7+r  16       :1@ v0.,     ",
"    ,.%i 1;<&     :>pg 28X=     ",
"    #$-o 6k*<&   :>*l1 #u9O     ",
"    #$-o  &5*<& :>*;3  =X82     ",
"    #$-o   &5*<1>*;3   r+s      ",
"    #$-o    &5dpd;3   q%9y      ",
"    #$-o     1p*;3   28+7       ",
"    #$-o    :>d;36&  @r0hO      ",
"    #$-o   :>*;36<<&   7+7      ",
"    #$-o  :>*;a 65*<&  O982     ",
"    #$-o :>*;a   &5*<& #u9O     ",
"    #u%O 1p;a     &5zc #x-o     ",
"     s+q @g1       &g6 i%4#     ",
"     f0$O             #w+t      ",
"     ,s+uf2,,,,,,,,,#iw+4e      ",
"      2w+08.........$%+4i       ",
"       #qjX%%%%%%%%%-4te        ",
"         ,=OOOOOOOOOo#          ",
"                                ",
"                                ",
"                                ",
"                                ",
"                                "
};
