/* XPM */
static char *a1c07ad899c84898ca5243571c6ed466qOyp2gvZU9Y4uctf[] = {
/* columns rows colors chars-per-pixel */
"64 64 217 2 ",
"   c None",
".  c black",
"X  c #65000F",
"o  c #70000F",
"O  c #7A000F",
"+  c #7B000F",
"@  c #7C000F",
"#  c #7E000F",
"$  c #940012",
"%  c #950012",
"&  c #950016",
"*  c #940017",
"=  c #960016",
"-  c #990015",
";  c #AF0017",
":  c #BD0017",
">  c #BF0016",
",  c #B20018",
"<  c #B3001B",
"1  c #B40019",
"2  c #B50019",
"3  c #B50119",
"4  c #B60018",
"5  c #B70118",
"6  c #B60019",
"7  c #B70019",
"8  c #B3001C",
"9  c #B5001C",
"0  c #B5001D",
"q  c #B80119",
"w  c #B8011A",
"e  c #BB011A",
"r  c #BB011B",
"t  c #BC021A",
"y  c #BD021A",
"u  c #B8001C",
"i  c #B9011C",
"p  c #BF001C",
"a  c #D2000F",
"s  c #D7000F",
"d  c #C10017",
"f  c #C50014",
"g  c #C60014",
"h  c #C70015",
"j  c #C40016",
"k  c #CB0013",
"l  c #CC0012",
"z  c #CE0012",
"x  c #C90015",
"c  c #CB0014",
"v  c #CA0015",
"b  c #C80016",
"n  c #CE0016",
"m  c #CE0017",
"M  c #C2011B",
"N  c #C40018",
"B  c #C4001B",
"V  c #C5001B",
"C  c #C7001A",
"Z  c #C7001B",
"A  c #C2001C",
"S  c #C6001C",
"D  c #C7001C",
"F  c #C7011C",
"G  c #C7001D",
"H  c #C5001E",
"J  c #C7001F",
"K  c #C90018",
"L  c #C80019",
"P  c #C90019",
"I  c #CA0018",
"U  c #CB0019",
"Y  c #C8001A",
"T  c #C9001A",
"R  c #C8001B",
"E  c #C9001B",
"W  c #C8011B",
"Q  c #C9011B",
"!  c #CA001A",
"~  c #CB001A",
"^  c #CB011A",
"/  c #CA001B",
"(  c #CB001B",
")  c #CA011B",
"_  c #CB011B",
"`  c #C8021B",
"'  c #CB021B",
"]  c #CD0018",
"[  c #CC001A",
"{  c #CD001A",
"}  c #CC011A",
"|  c #CD011A",
" . c #CC001B",
".. c #CC011B",
"X. c #CD011B",
"o. c #C8001C",
"O. c #C9001C",
"+. c #C8011C",
"@. c #C9011C",
"#. c #C9001D",
"$. c #C9011D",
"%. c #CA001C",
"&. c #CB001C",
"*. c #CA011C",
"=. c #CB011C",
"-. c #CA001D",
";. c #CB001D",
":. c #CA011D",
">. c #CB011D",
",. c #C8021C",
"<. c #C9021C",
"1. c #C8031C",
"2. c #C9031C",
"3. c #C8021D",
"4. c #C9021D",
"5. c #C8031D",
"6. c #C9031D",
"7. c #CA021C",
"8. c #CB021C",
"9. c #CA031C",
"0. c #CA021D",
"q. c #CB021D",
"w. c #CA031D",
"e. c #C8001E",
"r. c #C9001E",
"t. c #C8011E",
"y. c #C9011E",
"u. c #C9001F",
"i. c #C9011F",
"p. c #CA001E",
"a. c #CB001E",
"s. c #CA011E",
"d. c #CB011E",
"f. c #CA001F",
"g. c #CB001F",
"h. c #CA011F",
"j. c #CB011F",
"k. c #C8021E",
"l. c #C9021E",
"z. c #C9031E",
"x. c #C9021F",
"c. c #C9031F",
"v. c #CA021E",
"b. c #CB021E",
"n. c #CA031E",
"m. c #CB031E",
"M. c #CA021F",
"N. c #CB021F",
"B. c #CA031F",
"V. c #CB031F",
"C. c #CC001C",
"Z. c #CD001C",
"A. c #CC011C",
"S. c #CD011C",
"D. c #CC001D",
"F. c #CD001D",
"G. c #CC011D",
"H. c #CD011D",
"J. c #CE001D",
"K. c #CE011D",
"L. c #CC021C",
"P. c #CD021C",
"I. c #CC021D",
"U. c #CD021D",
"Y. c #CE021C",
"T. c #CE021D",
"R. c #CC001E",
"E. c #CD001E",
"W. c #CC011E",
"Q. c #CD011E",
"!. c #CD001F",
"~. c #CC011F",
"^. c #CE001E",
"/. c #CE011E",
"(. c #CF011E",
"). c #CF011F",
"_. c #CC021E",
"`. c #CC021F",
"'. c #CD021F",
"]. c #CD031F",
"[. c #CE021E",
"{. c #CF021E",
"}. c #CE021F",
"|. c #CF021F",
" X c #CE031F",
".X c #CA041D",
"XX c #CA041F",
"oX c #CB041F",
"OX c #DC0013",
"+X c #DC0014",
"@X c #D0001B",
"#X c #D0011E",
"$X c #D0011F",
"%X c #D1011F",
"&X c #D0021E",
"*X c #D0021F",
"=X c #C80020",
"-X c #C80120",
";X c #C90120",
":X c #CA0120",
">X c #CB0120",
",X c #CB0121",
"<X c #C90320",
"1X c #CA0220",
"2X c #CB0220",
"3X c #CA0320",
"4X c #CB0320",
"5X c #CB0221",
"6X c #CB0321",
"7X c #CD0020",
"8X c #CC0120",
"9X c #CC0320",
"0X c #CC0321",
"qX c #CA0420",
"wX c #CB0420",
"eX c #CC0420",
"rX c #CD0420",
/* pixels */
"                                                                                                                                ",
"                                                                                                                                ",
"                                                                                                                                ",
"                                                                                                                                ",
"                                  ; M.M 5 5 q q y y y y y y y y y y y y y y y q q q p M.d                                       ",
"                            : M.W.W...W.W.W.W.W.W.W.W.W.W.W.W.W.W.W.W.W.W.W.W.W.W.W.W.W...L ..g                                 ",
"                        H M.W.W.W.W.W.W.W.W.&X&X&X&X&X&X&X&X&X&X&X&X&X&X&X&X&X&X&XW.W.W.W.W.W.L L ..                            ",
"                      M.0XeXeXeX0XM.M.M.W.W.W.W.W.W.W.W.W.W.W.W.W.W.W.W.W.W.W.W.W.W.M.M.M.M.M.M.M.L ..                          ",
"                  * M.2XwXXXwXM.M.M.M.M.M.M.M.M.M.M.M.M.M.M.M.M.M.M.M.M.M.M.M.M.M.M.L L M.M.M.M.M.M.L ..l                       ",
"                * M.2XM.XXM.H N                                                             W.M.M.M.M.L ..b                     ",
"                2X2XM.M.M.L                                                                     ..M.M.M.M...                    ",
"              2X2XM.M.M.z                                                                         OXW.XXM.M.L                   ",
"            H 2XM.M.H l                                                                             +XM.M.M.M.b                 ",
"            2XM.M.M.L                                                                                 W.M.M.M.L                 ",
"          W.2XM.M.L                                                                                     M.M.M.M.g               ",
"          2XM.M.M.L                                                                                     0XM.M.M.L               ",
"          2XM.M.M.                                                                                        M.M.M.L               ",
"        &XM.M.M.N                 . . . .                                         . . . .                 M.M.M.M.              ",
"        W.M.M.M.N                 . . . . .                                     . . . . .                 M.M.W.M.              ",
"        q W.W.M.H                 . . . . . .                                 . . . . . .                 M.M.W.M.              ",
"        8 W.W.M.M.                . . . . . . .                             . . . . . . .                 M.M.W.M.              ",
"        , W.W...M.                  . . . . . . .                         . . . . . . .                   M.W.M.M.              ",
"        5 W.W.W.M.                    . . . . . . .                     . . . . . . .                     2XW.M.M.              ",
"        , W.W.W.W.                      . . . . . . .                 . . . . . . .                       2XM.M.M.              ",
"        5 W.W.W.W.                        . . . . . . .             . . . . . . .                       M.2XM.M.M.              ",
"        5 W.W.W.W.                          . . . . . . .         . . . . . . .                         2XM.M.M.l               ",
"        5 W.W...W.                            . . . . . . .     . . . . . . .                         2XwXM.M.L                 ",
"        5 W.W...W.                              . . . . . . . . . . . . . .                         M.2XM.M.M.g                 ",
"        5 W.W...W.                                . . . . . . . . . . . .                         H M.M.M.L L                   ",
"        5 W.W...W.                                  . . . . . . . . . .                         M.M.M.M.L L                     ",
"        5 W.W...W.                                    . . . . . . . .                           M.M.M.M.L                       ",
"        5 W.W...W.                                    . . . . . . .                             M.M.M.M.M.%                     ",
"        5 W.W...W.                                  . . . . . . .                               W.M.M.M.L L                     ",
"        5 W.W...W.                                . . . . . . .                                   ..W.M.M.L L                   ",
"        5 W.W...W.                              . . . . . . .             .                         L M.M.M.L b                 ",
"        5 W.W...W.                            . . . . . . .             . . .                         W.M.M.M...                ",
"        5 W.W.W.W.                          . . . . . . .             . . . . .                         M.M.M.M.b               ",
"        5 W.W.W.W.                        . . . . . . .             . . . . . . .                       M.M.M.M.L               ",
"        5 W.W.W.M.                      . . . . . . .                 . . . . . . .                       M.M.M.L               ",
"        5 W.W.W.M.                    . . . . . . .                     . . . . . . .                     M.M.M.M.              ",
"        0 W.W.M.M.                  . . . . . . .                         . . . . . . .                   M.M.W.M.              ",
"        u W.W.M.L                 . . . . . . .                             . . . . . . .                 M.M.M.M.              ",
"        A W.W.M.N                 . . . . . .                                 . . . . . .                 M.M.M.M.              ",
"        W.W.W.M.L                 . . . . .                                     . . . . .                 M.W.M.M.              ",
"          M.W.W.M.                . . . .                                         . . . .                 2XW.M.M.              ",
"          M.M.M.M.                                                                                        2XM.M.M.              ",
"          0XM.M.M.L                                                                                     M.M.M.M.M.              ",
"          0 M.M.M.L                                                                                     M.M.M.M.-               ",
"            M.M.L L L                                                                                 H 2XM.M.L                 ",
"            W.M.M.L L b                                                                             * M.M.M.M.m                 ",
"              M.M.M.L ..m                                                                         : M.M.M.M.L                   ",
"                W.XXM.M...@X                                                                    H M.M.M.M.M.                    ",
"                  W.M.M.M.W...L                                                             N M.M.M.M.M.M.s                     ",
"                    M.M.M.M.W.W.....L M.W.W.W.W.W.W.W.W.W.W.W.W.W.W.W.W.W.W.W.W.W.M.M.M.M.M.M.M.M.M.M.L a                       ",
"                      ..M.M.M.W.W.W.W.W.W.W.W.W.W.W.W.W.W.W.W.W.W.W.W.W.W.W.W.W.W.W.W.W.W.W.M.M.M.M.L                           ",
"                        L L M.M.W.W.W.W.W.W.W.&X&X&XW.&X&XW.&XW.W.W.&X&X&X&X&XW.W.W.W.W.M.M.M.M.L g                             ",
"                            L W.M.M.M.M.M.W.W.W.W.W.W.W.W.W.W.W.W.W.W.W.W.W.W.W.W.W.M.M.M.M.N %                                 ",
"                                        O O # # # o X X X X X X X X X X # # # # #                                               ",
"                                                                                                                                ",
"                                                                                                                                ",
"                                                                                                                                ",
"                                                                                                                                ",
"                                                                                                                                ",
"                                                                                                                                "
};
